<svg class="" xmlns="http://www.w3.org/2000/svg" viewBox="0 0 342.93 298.09">
  <path class="fill-current" d="M96.41,127.69a21.36,21.36,0,1,0,21.36,21.36A21.36,21.36,0,0,0,96.41,127.69Z"/>
  <path class="fill-current" d="M171.46,0a21.36,21.36,0,1,0,21.36,21.36A21.35,21.35,0,0,0,171.46,0Z"/>
  <path class="fill-current" d="M21.36,255.38a21.36,21.36,0,1,0,21.35,21.35A21.35,21.35,0,0,0,21.36,255.38Z"/>
  <path class="fill-current" d="M171.46,212.66A21.36,21.36,0,1,0,192.82,234,21.35,21.35,0,0,0,171.46,212.66Z"/>
  <path class="fill-current" d="M321.57,255.38a21.36,21.36,0,1,0,21.36,21.35A21.35,21.35,0,0,0,321.57,255.38Z"/>
  <path class="fill-current" d="M246.52,127.69a21.36,21.36,0,1,0,21.36,21.36A21.36,21.36,0,0,0,246.52,127.69Z"/>
</svg>