<svg xmlns="http://www.w3.org/2000/svg" viewBox="0 0 1800 147.15">
    <path class="fill-current" d="M54.81,2.34,0,144.6H34.34l8.95-24.11h61l8.95,24.11h34.34L92.77,2.34Zm-3.2,91.5L73.79,32.63,96,93.84Z"/>
    <path class="fill-current" d="M262.73,71.23c13.43-2.77,24.52-14.93,24.52-32.63,0-19-13.86-36.26-40.95-36.26H171.45V144.6h77.2C276,144.6,290,127.53,290,106,290,88.29,278.08,73.58,262.73,71.23ZM201.73,29h38c10.24,0,16.64,6.19,16.64,14.93,0,9.17-6.4,14.93-16.64,14.93h-38ZM241,117.94H201.73V85.52H241c11.73,0,18.13,7.25,18.13,16.21C259.1,112,252.28,117.94,241,117.94Z"/>
    <path class="fill-current" d="M458.05,26.87c14.51,0,27.3,9.17,33.27,20.69l26-12.8C507.32,16.85,489.19,0,458.05,0c-42.86,0-75.92,29.64-75.92,73.58,0,43.72,33.06,73.57,75.92,73.57,31.14,0,49.27-17.27,59.29-35l-26-12.58c-6,11.51-18.76,20.68-33.27,20.68-26,0-44.78-19.83-44.78-46.7S432,26.87,458.05,26.87Z"/>
    <path class="fill-current" d="M613.72,0c-43.08,0-74.43,30.71-74.43,73.58s31.35,73.57,74.43,73.57c42.87,0,74.22-30.71,74.22-73.57S656.59,0,613.72,0Zm0,120.28c-26.44,0-43.29-20.26-43.29-46.7,0-26.66,16.85-46.71,43.29-46.71,26.23,0,43.08,20.05,43.08,46.71C656.8,100,640,120.28,613.72,120.28Z"/><polygon class="fill-current" points="816.73 91.7 750.83 2.34 719.7 2.34 719.7 144.59 749.98 144.59 749.98 51.82 817.8 144.59 847.02 144.59 847.02 2.34 816.73 2.34 816.73 91.7"/>
    <path class="fill-current" d="M911.83,41.16c0-8.53,7.25-14.08,20-14.08,14.5,0,29.86,4.91,41.37,15.57l16.85-22.6C976,7,957.26.21,934.65.21c-33.48,0-54,19.62-54,43.3,0,53.53,81.9,36.25,81.9,61,0,8.32-7.89,15.78-24.74,15.78a62.48,62.48,0,0,1-45.21-19.4L876,124.55c13.44,13.43,33.06,22.6,60.57,22.6,38.18,0,56.94-19.62,56.94-45.64C993.51,48.41,911.83,63.55,911.83,41.16Z"/>
    <path class="fill-current" d="M1121.88,86.8c0,19.83-11.3,33.48-33.27,33.48s-33.48-13.65-33.48-33.48V2.34h-30.71V87.65c0,35.19,20.9,59.5,64.19,59.5s64.2-24.31,64.2-59.5V2.34h-30.93Z"/>
    <polygon class="fill-current" points="1220.61 2.34 1190.11 2.34 1190.11 144.59 1280.75 144.59 1280.75 117.94 1220.61 117.94 1220.61 2.34"/>
    <polygon class="fill-current" points="1282.02 29 1323.61 29 1323.61 144.59 1354.1 144.59 1354.1 29 1395.48 29 1395.48 2.34 1282.02 2.34 1282.02 29"/>
    <rect class="fill-current" x="1425.53" y="2.34" width="30.28" height="142.25"/>
    <polygon class="fill-current" points="1591.66 91.7 1525.76 2.34 1494.62 2.34 1494.62 144.59 1524.9 144.59 1524.9 51.82 1592.72 144.59 1621.94 144.59 1621.94 2.34 1591.66 2.34 1591.66 91.7"/>
    <path class="fill-current" d="M1722.37,65.69V92.35h44.36c-4.48,14.92-16.64,27.93-36.9,27.93-26,0-44.78-19.83-44.78-46.7s18.76-46.71,44.78-46.71c14.93,0,27.09,8.53,33.7,18.55l25-13.64C1777.82,14.93,1759.27,0,1729.83,0c-41.8,0-75.92,28.58-75.92,73.58,0,44.78,34.12,73.57,73.15,73.57,45.43,0,72.94-30.71,72.94-81.46Z"/>
  </svg>